<?xml version="1.0" standalone="no"?>
<!DOCTYPE svg PUBLIC "-//W3C//DTD SVG 20010904//EN"
 "http://www.w3.org/TR/2001/REC-SVG-20010904/DTD/svg10.dtd">
<svg version="1.0" xmlns="http://www.w3.org/2000/svg"
 width="512.000000pt" height="512.000000pt" viewBox="0 0 512.000000 512.000000"
 preserveAspectRatio="xMidYMid meet">
<metadata>
Created by potrace 1.11, written by Peter Selinger 2001-2013
</metadata>
<g transform="translate(0.000000,512.000000) scale(0.100000,-0.100000)"
fill="#000000" stroke="none">
<path d="M800 4731 c-14 -3 -199 -6 -413 -5 l-387 1 2 -626 3 -626 253 0 252
0 0 -912 c0 -719 -3 -913 -13 -914 -6 -1 -120 -2 -252 -3 l-240 -1 0 -625 0
-625 1410 -1 c776 0 1416 -4 1423 -8 7 -4 12 -4 12 1 0 10 771 10 788 -1 6 -4
12 -4 12 1 0 4 330 8 733 8 l732 0 3 625 2 625 -251 0 c-138 0 -253 3 -255 7
-4 6 -6 843 -4 1698 l0 125 253 0 252 0 3 626 2 625 -1741 0 c-957 -1 -1743 2
-1745 6 -3 4 -15 4 -27 0 -25 -9 -758 -9 -773 0 -5 3 -20 2 -34 -1z m161 -350
c11 -2 6 -486 -5 -493 -7 -5 -8 -8 -1 -8 12 0 19 -59 8 -61 -39 -6 -556 -2
-560 4 -10 16 -5 549 5 556 8 5 528 7 553 2z m1257 -279 c2 -263 1 -282 -15
-283 -53 -4 -530 -4 -540 -1 -10 3 -13 68 -13 281 0 153 2 280 4 282 3 2 130
4 283 4 l278 0 3 -283z m1032 274 c0 -4 6 -4 13 1 9 7 153 10 200 4 4 -1 6
-128 5 -283 l-3 -283 -282 0 -283 0 0 281 c0 154 2 283 4 285 9 9 346 4 346
-5z m1465 2 c8 -8 10 -542 2 -555 -4 -6 -495 -10 -554 -4 -8 1 -11 75 -11 279
0 152 2 279 3 282 5 8 553 6 560 -2z m-2685 -943 c29 -19 54 -35 56 -35 2 0
79 -46 171 -102 427 -258 1033 -624 1078 -650 63 -38 95 -67 95 -88 0 -9 -10
-26 -22 -37 -21 -18 -291 -183 -778 -475 -91 -54 -172 -102 -180 -108 -180
-111 -412 -250 -416 -250 -3 0 -17 -9 -31 -20 -35 -27 -81 -26 -91 1 -5 11 -8
417 -8 900 1 771 3 881 16 889 27 17 57 10 110 -25z m-1074 -2134 c7 -1 10
-85 9 -278 -1 -153 -3 -280 -4 -283 -2 -8 -549 -6 -556 2 -5 5 -9 405 -6 543
1 20 7 20 273 19 150 -1 278 -2 284 -3z m1261 -276 c1 -154 -2 -282 -7 -285
-5 -3 -131 -5 -282 -5 l-273 1 -3 279 c-1 164 1 281 7 284 5 4 132 6 283 6
l273 -1 2 -279z m1246 276 c4 0 6 -128 5 -283 l-3 -282 -117 -1 c-65 0 -118 3
-118 8 0 4 -6 5 -12 0 -7 -4 -82 -8 -166 -8 l-152 0 1 282 c0 252 2 282 17
285 14 3 525 2 545 -1z m1252 -3 c5 -5 8 -296 6 -513 l-1 -50 -277 1 c-153 1
-281 2 -284 3 -3 0 -6 127 -7 280 l-1 280 22 3 c42 6 536 3 542 -4z"/>
</g>
</svg>
